{
  "accessors": [
    {
      "name": "Line008_1_0_positions",
      "componentType": 5126,
      "count": 2738,
      "min": [
        -54.215999603271484,
        -0.07940000295639038,
        -80.42140197753906
      ],
      "max": [
        54.21580123901367,
        30.225799560546875,
        80.42140197753906
      ],
      "type": "VEC3",
      "bufferView": 0,
      "byteOffset": 0
    },
    {
      "name": "Line008_1_0_normals",
      "componentType": 5126,
      "count": 2738,
      "min": [
        -0.9999985694885254,
        -1,
        -1
      ],
      "max": [
        0.9999985694885254,
        1,
        0.9999982118606567
      ],
      "type": "VEC3",
      "bufferView": 1,
      "byteOffset": 0
    },
    {
      "name": "Line008_1_0_texcoords",
      "componentType": 5126,
      "count": 2738,
      "min": [
        -1,
        -2.997999906539917
      ],
      "max": [
        13.993000030517578,
        2.2309000492095947
      ],
      "type": "VEC2",
      "bufferView": 2,
      "byteOffset": 0
    },
    {
      "name": "Line008_1_0_indices",
      "componentType": 5123,
      "count": 5868,
      "min": [
        0
      ],
      "max": [
        2737
      ],
      "type": "SCALAR",
      "bufferView": 3,
      "byteOffset": 0
    },
    {
      "name": "Line008_1_1_positions",
      "componentType": 5126,
      "count": 24,
      "min": [
        -11.147899627685547,
        1.4180999994277954,
        62.04059982299805
      ],
      "max": [
        4.663899898529053,
        24.126300811767578,
        68.15149688720703
      ],
      "type": "VEC3",
      "bufferView": 0,
      "byteOffset": 32856
    },
    {
      "name": "Line008_1_1_normals",
      "componentType": 5126,
      "count": 24,
      "min": [
        -0.36048629879951477,
        0,
        0.9327645301818848
      ],
      "max": [
        -0.36048629879951477,
        0,
        0.9327645301818848
      ],
      "type": "VEC3",
      "bufferView": 1,
      "byteOffset": 32856
    },
    {
      "name": "Line008_1_1_texcoords",
      "componentType": 5126,
      "count": 24,
      "min": [
        -8,
        0
      ],
      "max": [
        8,
        1
      ],
      "type": "VEC2",
      "bufferView": 2,
      "byteOffset": 21904
    },
    {
      "name": "Line008_1_1_indices",
      "componentType": 5123,
      "count": 36,
      "min": [
        0
      ],
      "max": [
        23
      ],
      "type": "SCALAR",
      "bufferView": 3,
      "byteOffset": 11736
    },
    {
      "name": "Line008_1_2_positions",
      "componentType": 5126,
      "count": 117,
      "min": [
        -52.029598236083984,
        0,
        -80.42140197753906
      ],
      "max": [
        53.3306999206543,
        25,
        80.42140197753906
      ],
      "type": "VEC3",
      "bufferView": 0,
      "byteOffset": 33144
    },
    {
      "name": "Line008_1_2_normals",
      "componentType": 5126,
      "count": 117,
      "min": [
        -0.9996514916419983,
        -1,
        -0.9997308254241943
      ],
      "max": [
        0.9998767375946045,
        0,
        0.9998288750648499
      ],
      "type": "VEC3",
      "bufferView": 1,
      "byteOffset": 33144
    },
    {
      "name": "Line008_1_2_texcoords",
      "componentType": 5126,
      "count": 117,
      "min": [
        -16,
        -4.997000217437744
      ],
      "max": [
        23.988000869750977,
        1
      ],
      "type": "VEC2",
      "bufferView": 2,
      "byteOffset": 22096
    },
    {
      "name": "Line008_1_2_indices",
      "componentType": 5123,
      "count": 183,
      "min": [
        0
      ],
      "max": [
        116
      ],
      "type": "SCALAR",
      "bufferView": 3,
      "byteOffset": 11808
    },
    {
      "name": "Line008_1_3_positions",
      "componentType": 5126,
      "count": 455,
      "min": [
        -54.215999603271484,
        4.037499904632568,
        -80.2146987915039
      ],
      "max": [
        53.042701721191406,
        29.646499633789062,
        80.2177963256836
      ],
      "type": "VEC3",
      "bufferView": 0,
      "byteOffset": 34548
    },
    {
      "name": "Line008_1_3_normals",
      "componentType": 5126,
      "count": 455,
      "min": [
        -0.9984306693077087,
        -1,
        -0.9929899573326111
      ],
      "max": [
        0.9984306693077087,
        1,
        0.994134247303009
      ],
      "type": "VEC3",
      "bufferView": 1,
      "byteOffset": 34548
    },
    {
      "name": "Line008_1_3_texcoords",
      "componentType": 5126,
      "count": 455,
      "min": [
        -8,
        0
      ],
      "max": [
        1,
        2
      ],
      "type": "VEC2",
      "bufferView": 2,
      "byteOffset": 23032
    },
    {
      "name": "Line008_1_3_indices",
      "componentType": 5123,
      "count": 948,
      "min": [
        0
      ],
      "max": [
        454
      ],
      "type": "SCALAR",
      "bufferView": 3,
      "byteOffset": 12176
    },
    {
      "name": "Line008_1_4_positions",
      "componentType": 5126,
      "count": 118,
      "min": [
        -32.01150131225586,
        0,
        -79.56939697265625
      ],
      "max": [
        53.3306999206543,
        25,
        64.74299621582031
      ],
      "type": "VEC3",
      "bufferView": 0,
      "byteOffset": 40008
    },
    {
      "name": "Line008_1_4_normals",
      "componentType": 5126,
      "count": 118,
      "min": [
        -1,
        -1,
        -0.999841570854187
      ],
      "max": [
        1,
        1,
        0.9998361468315125
      ],
      "type": "VEC3",
      "bufferView": 1,
      "byteOffset": 40008
    },
    {
      "name": "Line008_1_4_texcoords",
      "componentType": 5126,
      "count": 118,
      "min": [
        -6.149899959564209,
        -3.8989999294281006
      ],
      "max": [
        20.747400283813477,
        4.89900016784668
      ],
      "type": "VEC2",
      "bufferView": 2,
      "byteOffset": 26672
    },
    {
      "name": "Line008_1_4_indices",
      "componentType": 5123,
      "count": 348,
      "min": [
        0
      ],
      "max": [
        117
      ],
      "type": "SCALAR",
      "bufferView": 3,
      "byteOffset": 14072
    },
    {
      "name": "Line008_1_5_positions",
      "componentType": 5126,
      "count": 1161,
      "min": [
        -52.029598236083984,
        4.037499904632568,
        -80.42140197753906
      ],
      "max": [
        53.3306999206543,
        30.225799560546875,
        80.42140197753906
      ],
      "type": "VEC3",
      "bufferView": 0,
      "byteOffset": 41424
    },
    {
      "name": "Line008_1_5_normals",
      "componentType": 5126,
      "count": 1161,
      "min": [
        -0.9998767375946045,
        -0.00010000169277191162,
        -0.9999047517776489
      ],
      "max": [
        0.9999338388442993,
        1,
        0.9998671412467957
      ],
      "type": "VEC3",
      "bufferView": 1,
      "byteOffset": 41424
    },
    {
      "name": "Line008_1_5_texcoords",
      "componentType": 5126,
      "count": 1161,
      "min": [
        -2.982599973678589,
        -0.9690999984741211
      ],
      "max": [
        9.994999885559082,
        1
      ],
      "type": "VEC2",
      "bufferView": 2,
      "byteOffset": 27616
    },
    {
      "name": "Line008_1_5_indices",
      "componentType": 5123,
      "count": 2103,
      "min": [
        0
      ],
      "max": [
        1160
      ],
      "type": "SCALAR",
      "bufferView": 3,
      "byteOffset": 14768
    },
    {
      "name": "Line008_1_6_positions",
      "componentType": 5126,
      "count": 760,
      "min": [
        25.512100219726562,
        6.052499771118164,
        -58.29439926147461
      ],
      "max": [
        54.215999603271484,
        23.828699111938477,
        -39.56999969482422
      ],
      "type": "VEC3",
      "bufferView": 0,
      "byteOffset": 55356
    },
    {
      "name": "Line008_1_6_normals",
      "componentType": 5126,
      "count": 760,
      "min": [
        -0.9986871480941772,
        -1,
        -0.9995628595352173
      ],
      "max": [
        0.9362674951553345,
        1,
        0.9995982646942139
      ],
      "type": "VEC3",
      "bufferView": 1,
      "byteOffset": 55356
    },
    {
      "name": "Line008_1_6_texcoords",
      "componentType": 5126,
      "count": 760,
      "min": [
        -0.8676999807357788,
        -0.7060999870300293
      ],
      "max": [
        1.8676999807357788,
        1.8070000410079956
      ],
      "type": "VEC2",
      "bufferView": 2,
      "byteOffset": 36904
    },
    {
      "name": "Line008_1_6_indices",
      "componentType": 5123,
      "count": 1140,
      "min": [
        0
      ],
      "max": [
        759
      ],
      "type": "SCALAR",
      "bufferView": 3,
      "byteOffset": 18976
    },
    {
      "name": "Line008_1_7_positions",
      "componentType": 5126,
      "count": 8,
      "min": [
        5.9604997634887695,
        -0.01979999989271164,
        5.509399890899658
      ],
      "max": [
        29.877599716186523,
        29.820199966430664,
        68.54060363769531
      ],
      "type": "VEC3",
      "bufferView": 0,
      "byteOffset": 64476
    },
    {
      "name": "Line008_1_7_normals",
      "componentType": 5126,
      "count": 8,
      "min": [
        0.9331057071685791,
        0,
        0.3533908426761627
      ],
      "max": [
        0.935475766658783,
        0,
        0.3596022129058838
      ],
      "type": "VEC3",
      "bufferView": 1,
      "byteOffset": 64476
    },
    {
      "name": "Line008_1_7_texcoords",
      "componentType": 5126,
      "count": 8,
      "min": [
        0,
        -5
      ],
      "max": [
        1,
        1
      ],
      "type": "VEC2",
      "bufferView": 2,
      "byteOffset": 42984
    },
    {
      "name": "Line008_1_7_indices",
      "componentType": 5123,
      "count": 12,
      "min": [
        0
      ],
      "max": [
        7
      ],
      "type": "SCALAR",
      "bufferView": 3,
      "byteOffset": 21256
    }
  ],
  "asset": {
    "generator": "obj2gltf",
    "version": "2.0"
  },
  "buffers": [
    {
      "name": "1hjxl",
      "byteLength": 637128,
      "uri": "data:application/octet-stream;base64,"
    }
  ],
  "bufferViews": [
    {
      "name": "bufferView_0",
      "buffer": 0,
      "byteLength": 64572,
      "byteOffset": 0,
      "byteStride": 12,
      "target": 34962
    },
    {
      "name": "bufferView_1",
      "buffer": 0,
      "byteLength": 64572,
      "byteOffset": 64572,
      "byteStride": 12,
      "target": 34962
    },
    {
      "name": "bufferView_2",
      "buffer": 0,
      "byteLength": 43048,
      "byteOffset": 129144,
      "byteStride": 8,
      "target": 34962
    },
    {
      "name": "bufferView_3",
      "buffer": 0,
      "byteLength": 21280,
      "byteOffset": 172192,
      "target": 34963
    },
    {
      "buffer": 0,
      "byteOffset": 193472,
      "byteLength": 75321
    },
    {
      "buffer": 0,
      "byteOffset": 268793,
      "byteLength": 64693
    },
    {
      "buffer": 0,
      "byteOffset": 333486,
      "byteLength": 89278
    },
    {
      "buffer": 0,
      "byteOffset": 422764,
      "byteLength": 77023
    },
    {
      "buffer": 0,
      "byteOffset": 499787,
      "byteLength": 62110
    },
    {
      "buffer": 0,
      "byteOffset": 561897,
      "byteLength": 1652
    },
    {
      "buffer": 0,
      "byteOffset": 563549,
      "byteLength": 11651
    },
    {
      "buffer": 0,
      "byteOffset": 575200,
      "byteLength": 61925
    }
  ],
  "images": [
    {
      "name": "lqcs012",
      "mimeType": "image/jpeg",
      "bufferView": 4
    },
    {
      "name": "lqcs006",
      "mimeType": "image/jpeg",
      "bufferView": 5
    },
    {
      "name": "lqcs004",
      "mimeType": "image/jpeg",
      "bufferView": 6
    },
    {
      "name": "lqcs010",
      "mimeType": "image/jpeg",
      "bufferView": 7
    },
    {
      "name": "lqcs001",
      "mimeType": "image/jpeg",
      "bufferView": 8
    },
    {
      "name": "lqcs019",
      "mimeType": "image/png",
      "bufferView": 9
    },
    {
      "name": "ttt",
      "mimeType": "image/jpeg",
      "bufferView": 10
    },
    {
      "name": "lqcs007",
      "mimeType": "image/jpeg",
      "bufferView": 11
    }
  ],
  "materials": [
    {
      "name": "Material__2147020350",
      "pbrMetallicRoughness": {
        "baseColorTexture": {
          "index": 0
        },
        "baseColorFactor": [
          1,
          1,
          1,
          1
        ],
        "metallicFactor": 0,
        "roughnessFactor": 0.99
      },
      "emissiveFactor": [
        0,
        0,
        0
      ],
      "alphaMode": "OPAQUE",
      "doubleSided": false
    },
    {
      "name": "Material__2147020347",
      "pbrMetallicRoughness": {
        "baseColorTexture": {
          "index": 1
        },
        "baseColorFactor": [
          1,
          1,
          1,
          1
        ],
        "metallicFactor": 0,
        "roughnessFactor": 0.99
      },
      "emissiveFactor": [
        0,
        0,
        0
      ],
      "alphaMode": "OPAQUE",
      "doubleSided": false
    },
    {
      "name": "Material__2147020349",
      "pbrMetallicRoughness": {
        "baseColorTexture": {
          "index": 2
        },
        "baseColorFactor": [
          1,
          1,
          1,
          1
        ],
        "metallicFactor": 0,
        "roughnessFactor": 0.99
      },
      "emissiveFactor": [
        0,
        0,
        0
      ],
      "alphaMode": "OPAQUE",
      "doubleSided": false
    },
    {
      "name": "Material__2147020351",
      "pbrMetallicRoughness": {
        "baseColorTexture": {
          "index": 3
        },
        "baseColorFactor": [
          1,
          1,
          1,
          1
        ],
        "metallicFactor": 0,
        "roughnessFactor": 0.99
      },
      "emissiveFactor": [
        0,
        0,
        0
      ],
      "alphaMode": "OPAQUE",
      "doubleSided": false
    },
    {
      "name": "Material__2147020346",
      "pbrMetallicRoughness": {
        "baseColorTexture": {
          "index": 4
        },
        "baseColorFactor": [
          1,
          1,
          1,
          1
        ],
        "metallicFactor": 0,
        "roughnessFactor": 0.99
      },
      "emissiveFactor": [
        0,
        0,
        0
      ],
      "alphaMode": "OPAQUE",
      "doubleSided": false
    },
    {
      "name": "Material__2147020353",
      "pbrMetallicRoughness": {
        "baseColorTexture": {
          "index": 5
        },
        "baseColorFactor": [
          1,
          1,
          1,
          1
        ],
        "metallicFactor": 0,
        "roughnessFactor": 0.99
      },
      "emissiveFactor": [
        0,
        0,
        0
      ],
      "alphaMode": "OPAQUE",
      "doubleSided": false
    },
    {
      "name": "Material__2147020352",
      "pbrMetallicRoughness": {
        "baseColorTexture": {
          "index": 6
        },
        "baseColorFactor": [
          1,
          1,
          1,
          1
        ],
        "metallicFactor": 0,
        "roughnessFactor": 0.99
      },
      "emissiveFactor": [
        0,
        0,
        0
      ],
      "alphaMode": "OPAQUE",
      "doubleSided": false
    },
    {
      "name": "Material__2147020348",
      "pbrMetallicRoughness": {
        "baseColorTexture": {
          "index": 7
        },
        "baseColorFactor": [
          1,
          1,
          1,
          1
        ],
        "metallicFactor": 0,
        "roughnessFactor": 0.99
      },
      "emissiveFactor": [
        0,
        0,
        0
      ],
      "alphaMode": "OPAQUE",
      "doubleSided": false
    }
  ],
  "meshes": [
    {
      "name": "Line008_1",
      "primitives": [
        {
          "attributes": {
            "POSITION": 0,
            "NORMAL": 1,
            "TEXCOORD_0": 2
          },
          "indices": 3,
          "material": 0,
          "mode": 4
        },
        {
          "attributes": {
            "POSITION": 4,
            "NORMAL": 5,
            "TEXCOORD_0": 6
          },
          "indices": 7,
          "material": 1,
          "mode": 4
        },
        {
          "attributes": {
            "POSITION": 8,
            "NORMAL": 9,
            "TEXCOORD_0": 10
          },
          "indices": 11,
          "material": 2,
          "mode": 4
        },
        {
          "attributes": {
            "POSITION": 12,
            "NORMAL": 13,
            "TEXCOORD_0": 14
          },
          "indices": 15,
          "material": 3,
          "mode": 4
        },
        {
          "attributes": {
            "POSITION": 16,
            "NORMAL": 17,
            "TEXCOORD_0": 18
          },
          "indices": 19,
          "material": 4,
          "mode": 4
        },
        {
          "attributes": {
            "POSITION": 20,
            "NORMAL": 21,
            "TEXCOORD_0": 22
          },
          "indices": 23,
          "material": 5,
          "mode": 4
        },
        {
          "attributes": {
            "POSITION": 24,
            "NORMAL": 25,
            "TEXCOORD_0": 26
          },
          "indices": 27,
          "material": 6,
          "mode": 4
        },
        {
          "attributes": {
            "POSITION": 28,
            "NORMAL": 29,
            "TEXCOORD_0": 30
          },
          "indices": 31,
          "material": 7,
          "mode": 4
        }
      ]
    }
  ],
  "nodes": [
    {
      "name": "Line008",
      "mesh": 0
    }
  ],
  "samplers": [
    {
      "wrapS": 10497,
      "wrapT": 10497
    }
  ],
  "scene": 0,
  "scenes": [
    {
      "nodes": [
        0
      ]
    }
  ],
  "textures": [
    {
      "name": "lqcs012",
      "sampler": 0,
      "source": 0
    },
    {
      "name": "lqcs006",
      "sampler": 0,
      "source": 1
    },
    {
      "name": "lqcs004",
      "sampler": 0,
      "source": 2
    },
    {
      "name": "lqcs010",
      "sampler": 0,
      "source": 3
    },
    {
      "name": "lqcs001",
      "sampler": 0,
      "source": 4
    },
    {
      "name": "lqcs019",
      "sampler": 0,
      "source": 5
    },
    {
      "name": "ttt",
      "sampler": 0,
      "source": 6
    },
    {
      "name": "lqcs007",
      "sampler": 0,
      "source": 7
    }
  ]
}
