{
  "accessors": [
    {
      "name": "Box002_1_0_positions",
      "componentType": 5126,
      "count": 90,
      "min": [
        -27.95669937133789,
        0,
        -11.511199951171875
      ],
      "max": [
        27.986600875854492,
        6.032800197601318,
        11.5068998336792
      ],
      "type": "VEC3",
      "bufferView": 0,
      "byteOffset": 0
    },
    {
      "name": "Box002_1_0_normals",
      "componentType": 5126,
      "count": 90,
      "min": [
        -1,
        -1,
        -1
      ],
      "max": [
        1,
        1,
        1
      ],
      "type": "VEC3",
      "bufferView": 1,
      "byteOffset": 0
    },
    {
      "name": "Box002_1_0_texcoords",
      "componentType": 5126,
      "count": 90,
      "min": [
        0,
        -1
      ],
      "max": [
        11.994000434875488,
        1
      ],
      "type": "VEC2",
      "bufferView": 2,
      "byteOffset": 0
    },
    {
      "name": "Box002_1_0_indices",
      "componentType": 5123,
      "count": 138,
      "min": [
        0
      ],
      "max": [
        89
      ],
      "type": "SCALAR",
      "bufferView": 3,
      "byteOffset": 0
    },
    {
      "name": "Box002_1_1_positions",
      "componentType": 5126,
      "count": 70,
      "min": [
        -34.67900085449219,
        3.4094998836517334,
        -12.511199951171875
      ],
      "max": [
        34.67900085449219,
        8.831500053405762,
        12.5068998336792
      ],
      "type": "VEC3",
      "bufferView": 0,
      "byteOffset": 1080
    },
    {
      "name": "Box002_1_1_normals",
      "componentType": 5126,
      "count": 70,
      "min": [
        -0.6075094938278198,
        0.7943124175071716,
        -0.5258760452270508
      ],
      "max": [
        0.5258760452270508,
        0.9735193848609924,
        0.6075094938278198
      ],
      "type": "VEC3",
      "bufferView": 1,
      "byteOffset": 1080
    },
    {
      "name": "Box002_1_1_texcoords",
      "componentType": 5126,
      "count": 70,
      "min": [
        -6.09499979019165,
        -3.6696999073028564
      ],
      "max": [
        7.09499979019165,
        4.6697001457214355
      ],
      "type": "VEC2",
      "bufferView": 2,
      "byteOffset": 720
    },
    {
      "name": "Box002_1_1_indices",
      "componentType": 5123,
      "count": 90,
      "min": [
        0
      ],
      "max": [
        69
      ],
      "type": "SCALAR",
      "bufferView": 3,
      "byteOffset": 276
    },
    {
      "name": "Box002_1_2_positions",
      "componentType": 5126,
      "count": 808,
      "min": [
        -34.67900085449219,
        0,
        -12.511199951171875
      ],
      "max": [
        34.67900085449219,
        6.277100086212158,
        12.5068998336792
      ],
      "type": "VEC3",
      "bufferView": 0,
      "byteOffset": 1920
    },
    {
      "name": "Box002_1_2_normals",
      "componentType": 5126,
      "count": 808,
      "min": [
        -1,
        -1,
        -1
      ],
      "max": [
        1,
        1,
        1
      ],
      "type": "VEC3",
      "bufferView": 1,
      "byteOffset": 1920
    },
    {
      "name": "Box002_1_2_texcoords",
      "componentType": 5126,
      "count": 808,
      "min": [
        -0.9994999766349792,
        0
      ],
      "max": [
        3.997999906539917,
        1
      ],
      "type": "VEC2",
      "bufferView": 2,
      "byteOffset": 1280
    },
    {
      "name": "Box002_1_2_indices",
      "componentType": 5123,
      "count": 1788,
      "min": [
        0
      ],
      "max": [
        807
      ],
      "type": "SCALAR",
      "bufferView": 3,
      "byteOffset": 456
    },
    {
      "name": "Box002_1_3_positions",
      "componentType": 5126,
      "count": 36,
      "min": [
        -34.67900085449219,
        3.1245999336242676,
        -12.511199951171875
      ],
      "max": [
        34.67900085449219,
        6.032800197601318,
        12.5068998336792
      ],
      "type": "VEC3",
      "bufferView": 0,
      "byteOffset": 11616
    },
    {
      "name": "Box002_1_3_normals",
      "componentType": 5126,
      "count": 36,
      "min": [
        -1,
        -1,
        -1
      ],
      "max": [
        1,
        1,
        0
      ],
      "type": "VEC3",
      "bufferView": 1,
      "byteOffset": 11616
    },
    {
      "name": "Box002_1_3_texcoords",
      "componentType": 5126,
      "count": 36,
      "min": [
        0,
        0
      ],
      "max": [
        1,
        0.9994999766349792
      ],
      "type": "VEC2",
      "bufferView": 2,
      "byteOffset": 7744
    },
    {
      "name": "Box002_1_3_indices",
      "componentType": 5123,
      "count": 54,
      "min": [
        0
      ],
      "max": [
        35
      ],
      "type": "SCALAR",
      "bufferView": 3,
      "byteOffset": 4032
    },
    {
      "name": "Box002_1_4_positions",
      "componentType": 5126,
      "count": 4,
      "min": [
        -19.756000518798828,
        4.0721001625061035,
        1.1253000497817993
      ],
      "max": [
        19.763900756835938,
        4.0721001625061035,
        1.318600058555603
      ],
      "type": "VEC3",
      "bufferView": 0,
      "byteOffset": 12048
    },
    {
      "name": "Box002_1_4_normals",
      "componentType": 5126,
      "count": 4,
      "min": [
        0,
        1,
        0
      ],
      "max": [
        0,
        1,
        0
      ],
      "type": "VEC3",
      "bufferView": 1,
      "byteOffset": 12048
    },
    {
      "name": "Box002_1_4_texcoords",
      "componentType": 5126,
      "count": 4,
      "min": [
        0.0005000000237487257,
        0.5
      ],
      "max": [
        0.9994999766349792,
        0.9994999766349792
      ],
      "type": "VEC2",
      "bufferView": 2,
      "byteOffset": 8032
    },
    {
      "name": "Box002_1_4_indices",
      "componentType": 5123,
      "count": 6,
      "min": [
        0
      ],
      "max": [
        3
      ],
      "type": "SCALAR",
      "bufferView": 3,
      "byteOffset": 4140
    },
    {
      "name": "Box002_1_5_positions",
      "componentType": 5126,
      "count": 288,
      "min": [
        -29.019800186157227,
        6.180500030517578,
        -12.611700057983398
      ],
      "max": [
        29.077600479125977,
        8.950599670410156,
        12.611700057983398
      ],
      "type": "VEC3",
      "bufferView": 0,
      "byteOffset": 12096
    },
    {
      "name": "Box002_1_5_normals",
      "componentType": 5126,
      "count": 288,
      "min": [
        -0.9766809940338135,
        -0.9600121974945068,
        -0.9766809940338135
      ],
      "max": [
        0.9766809940338135,
        0.9600121974945068,
        0.9766809940338135
      ],
      "type": "VEC3",
      "bufferView": 1,
      "byteOffset": 12096
    },
    {
      "name": "Box002_1_5_texcoords",
      "componentType": 5126,
      "count": 288,
      "min": [
        0,
        0
      ],
      "max": [
        1,
        1
      ],
      "type": "VEC2",
      "bufferView": 2,
      "byteOffset": 8064
    },
    {
      "name": "Box002_1_5_indices",
      "componentType": 5123,
      "count": 468,
      "min": [
        0
      ],
      "max": [
        287
      ],
      "type": "SCALAR",
      "bufferView": 3,
      "byteOffset": 4152
    }
  ],
  "asset": {
    "generator": "obj2gltf",
    "version": "2.0"
  },
  "buffers": [
    {
      "name": "bwg",
      "byteLength": 370852,
      "uri": "data:application/octet-stream;base64,"
    }
  ],
  "bufferViews": [
    {
      "name": "bufferView_0",
      "buffer": 0,
      "byteLength": 15552,
      "byteOffset": 0,
      "byteStride": 12,
      "target": 34962
    },
    {
      "name": "bufferView_1",
      "buffer": 0,
      "byteLength": 15552,
      "byteOffset": 15552,
      "byteStride": 12,
      "target": 34962
    },
    {
      "name": "bufferView_2",
      "buffer": 0,
      "byteLength": 10368,
      "byteOffset": 31104,
      "byteStride": 8,
      "target": 34962
    },
    {
      "name": "bufferView_3",
      "buffer": 0,
      "byteLength": 5088,
      "byteOffset": 41472,
      "target": 34963
    },
    {
      "buffer": 0,
      "byteOffset": 46560,
      "byteLength": 89278
    },
    {
      "buffer": 0,
      "byteOffset": 135838,
      "byteLength": 69365
    },
    {
      "buffer": 0,
      "byteOffset": 205203,
      "byteLength": 75321
    },
    {
      "buffer": 0,
      "byteOffset": 280524,
      "byteLength": 77023
    },
    {
      "buffer": 0,
      "byteOffset": 357547,
      "byteLength": 1652
    },
    {
      "buffer": 0,
      "byteOffset": 359199,
      "byteLength": 11651
    }
  ],
  "images": [
    {
      "name": "lqcs004",
      "mimeType": "image/jpeg",
      "bufferView": 4
    },
    {
      "name": "lqcs017",
      "mimeType": "image/jpeg",
      "bufferView": 5
    },
    {
      "name": "lqcs012",
      "mimeType": "image/jpeg",
      "bufferView": 6
    },
    {
      "name": "lqcs010",
      "mimeType": "image/jpeg",
      "bufferView": 7
    },
    {
      "name": "lqcs019",
      "mimeType": "image/png",
      "bufferView": 8
    },
    {
      "name": "ttt",
      "mimeType": "image/jpeg",
      "bufferView": 9
    }
  ],
  "materials": [
    {
      "name": "Material__2147020349",
      "pbrMetallicRoughness": {
        "baseColorTexture": {
          "index": 0
        },
        "baseColorFactor": [
          1,
          1,
          1,
          1
        ],
        "metallicFactor": 0,
        "roughnessFactor": 0.99
      },
      "emissiveFactor": [
        0,
        0,
        0
      ],
      "alphaMode": "OPAQUE",
      "doubleSided": false
    },
    {
      "name": "Material__2147020354",
      "pbrMetallicRoughness": {
        "baseColorTexture": {
          "index": 1
        },
        "baseColorFactor": [
          1,
          1,
          1,
          1
        ],
        "metallicFactor": 0,
        "roughnessFactor": 0.99
      },
      "emissiveFactor": [
        0,
        0,
        0
      ],
      "alphaMode": "OPAQUE",
      "doubleSided": false
    },
    {
      "name": "Material__2147020350",
      "pbrMetallicRoughness": {
        "baseColorTexture": {
          "index": 2
        },
        "baseColorFactor": [
          1,
          1,
          1,
          1
        ],
        "metallicFactor": 0,
        "roughnessFactor": 0.99
      },
      "emissiveFactor": [
        0,
        0,
        0
      ],
      "alphaMode": "OPAQUE",
      "doubleSided": false
    },
    {
      "name": "Material__2147020351",
      "pbrMetallicRoughness": {
        "baseColorTexture": {
          "index": 3
        },
        "baseColorFactor": [
          1,
          1,
          1,
          1
        ],
        "metallicFactor": 0,
        "roughnessFactor": 0.99
      },
      "emissiveFactor": [
        0,
        0,
        0
      ],
      "alphaMode": "OPAQUE",
      "doubleSided": false
    },
    {
      "name": "Material__2147020353",
      "pbrMetallicRoughness": {
        "baseColorTexture": {
          "index": 4
        },
        "baseColorFactor": [
          1,
          1,
          1,
          1
        ],
        "metallicFactor": 0,
        "roughnessFactor": 0.99
      },
      "emissiveFactor": [
        0,
        0,
        0
      ],
      "alphaMode": "OPAQUE",
      "doubleSided": false
    },
    {
      "name": "Material__2147020352",
      "pbrMetallicRoughness": {
        "baseColorTexture": {
          "index": 5
        },
        "baseColorFactor": [
          1,
          1,
          1,
          1
        ],
        "metallicFactor": 0,
        "roughnessFactor": 0.99
      },
      "emissiveFactor": [
        0,
        0,
        0
      ],
      "alphaMode": "OPAQUE",
      "doubleSided": false
    }
  ],
  "meshes": [
    {
      "name": "Box002_1",
      "primitives": [
        {
          "attributes": {
            "POSITION": 0,
            "NORMAL": 1,
            "TEXCOORD_0": 2
          },
          "indices": 3,
          "material": 0,
          "mode": 4
        },
        {
          "attributes": {
            "POSITION": 4,
            "NORMAL": 5,
            "TEXCOORD_0": 6
          },
          "indices": 7,
          "material": 1,
          "mode": 4
        },
        {
          "attributes": {
            "POSITION": 8,
            "NORMAL": 9,
            "TEXCOORD_0": 10
          },
          "indices": 11,
          "material": 2,
          "mode": 4
        },
        {
          "attributes": {
            "POSITION": 12,
            "NORMAL": 13,
            "TEXCOORD_0": 14
          },
          "indices": 15,
          "material": 3,
          "mode": 4
        },
        {
          "attributes": {
            "POSITION": 16,
            "NORMAL": 17,
            "TEXCOORD_0": 18
          },
          "indices": 19,
          "material": 4,
          "mode": 4
        },
        {
          "attributes": {
            "POSITION": 20,
            "NORMAL": 21,
            "TEXCOORD_0": 22
          },
          "indices": 23,
          "material": 5,
          "mode": 4
        }
      ]
    }
  ],
  "nodes": [
    {
      "name": "Box002",
      "mesh": 0
    }
  ],
  "samplers": [
    {
      "wrapS": 10497,
      "wrapT": 10497
    }
  ],
  "scene": 0,
  "scenes": [
    {
      "nodes": [
        0
      ]
    }
  ],
  "textures": [
    {
      "name": "lqcs004",
      "sampler": 0,
      "source": 0
    },
    {
      "name": "lqcs017",
      "sampler": 0,
      "source": 1
    },
    {
      "name": "lqcs012",
      "sampler": 0,
      "source": 2
    },
    {
      "name": "lqcs010",
      "sampler": 0,
      "source": 3
    },
    {
      "name": "lqcs019",
      "sampler": 0,
      "source": 4
    },
    {
      "name": "ttt",
      "sampler": 0,
      "source": 5
    }
  ]
}
