{
  "accessors": [
    {
      "name": "Box119_1_0_positions",
      "componentType": 5126,
      "count": 24,
      "min": [
        -42.23830032348633,
        0.63919997215271,
        -50.5614013671875
      ],
      "max": [
        42.19380187988281,
        0.63919997215271,
        50.757198333740234
      ],
      "type": "VEC3",
      "bufferView": 0,
      "byteOffset": 0
    },
    {
      "name": "Box119_1_0_normals",
      "componentType": 5126,
      "count": 24,
      "min": [
        0,
        -1,
        0
      ],
      "max": [
        0,
        -1,
        0
      ],
      "type": "VEC3",
      "bufferView": 1,
      "byteOffset": 0
    },
    {
      "name": "Box119_1_0_texcoords",
      "componentType": 5126,
      "count": 24,
      "min": [
        0,
        0
      ],
      "max": [
        1,
        1
      ],
      "type": "VEC2",
      "bufferView": 2,
      "byteOffset": 0
    },
    {
      "name": "Box119_1_0_indices",
      "componentType": 5123,
      "count": 66,
      "min": [
        0
      ],
      "max": [
        23
      ],
      "type": "SCALAR",
      "bufferView": 3,
      "byteOffset": 0
    },
    {
      "name": "Box119_1_1_positions",
      "componentType": 5126,
      "count": 54,
      "min": [
        -44.315799713134766,
        20.13920021057129,
        -52.7843017578125
      ],
      "max": [
        44.315799713134766,
        21.109500885009766,
        52.7843017578125
      ],
      "type": "VEC3",
      "bufferView": 0,
      "byteOffset": 288
    },
    {
      "name": "Box119_1_1_normals",
      "componentType": 5126,
      "count": 54,
      "min": [
        -1,
        0,
        -0.9998798966407776
      ],
      "max": [
        0,
        1,
        0
      ],
      "type": "VEC3",
      "bufferView": 1,
      "byteOffset": 288
    },
    {
      "name": "Box119_1_1_texcoords",
      "componentType": 5126,
      "count": 54,
      "min": [
        0,
        0
      ],
      "max": [
        1,
        1
      ],
      "type": "VEC2",
      "bufferView": 2,
      "byteOffset": 192
    },
    {
      "name": "Box119_1_1_indices",
      "componentType": 5123,
      "count": 69,
      "min": [
        0
      ],
      "max": [
        53
      ],
      "type": "SCALAR",
      "bufferView": 3,
      "byteOffset": 132
    },
    {
      "name": "Box119_1_2_positions",
      "componentType": 5126,
      "count": 44,
      "min": [
        -42.23830032348633,
        0.63919997215271,
        -50.5614013671875
      ],
      "max": [
        42.19380187988281,
        20.63920021057129,
        50.757198333740234
      ],
      "type": "VEC3",
      "bufferView": 0,
      "byteOffset": 936
    },
    {
      "name": "Box119_1_2_normals",
      "componentType": 5126,
      "count": 44,
      "min": [
        -1,
        0,
        -1
      ],
      "max": [
        1,
        0,
        1
      ],
      "type": "VEC3",
      "bufferView": 1,
      "byteOffset": 936
    },
    {
      "name": "Box119_1_2_texcoords",
      "componentType": 5126,
      "count": 44,
      "min": [
        -0.9994999766349792,
        -3
      ],
      "max": [
        17.990999221801758,
        1
      ],
      "type": "VEC2",
      "bufferView": 2,
      "byteOffset": 624
    },
    {
      "name": "Box119_1_2_indices",
      "componentType": 5123,
      "count": 72,
      "min": [
        0
      ],
      "max": [
        43
      ],
      "type": "SCALAR",
      "bufferView": 3,
      "byteOffset": 272
    },
    {
      "name": "Box119_1_3_positions",
      "componentType": 5126,
      "count": 24,
      "min": [
        -42.23830032348633,
        0.63919997215271,
        -28.046199798583984
      ],
      "max": [
        42.19380187988281,
        20.63920021057129,
        28.242000579833984
      ],
      "type": "VEC3",
      "bufferView": 0,
      "byteOffset": 1464
    },
    {
      "name": "Box119_1_3_normals",
      "componentType": 5126,
      "count": 24,
      "min": [
        -1,
        0,
        0
      ],
      "max": [
        1,
        0,
        0
      ],
      "type": "VEC3",
      "bufferView": 1,
      "byteOffset": 1464
    },
    {
      "name": "Box119_1_3_texcoords",
      "componentType": 5126,
      "count": 24,
      "min": [
        4.022200107574463,
        -3
      ],
      "max": [
        14.077799797058105,
        1
      ],
      "type": "VEC2",
      "bufferView": 2,
      "byteOffset": 976
    },
    {
      "name": "Box119_1_3_indices",
      "componentType": 5123,
      "count": 36,
      "min": [
        0
      ],
      "max": [
        23
      ],
      "type": "SCALAR",
      "bufferView": 3,
      "byteOffset": 416
    },
    {
      "name": "Box119_1_4_positions",
      "componentType": 5126,
      "count": 422,
      "min": [
        -44.51580047607422,
        0,
        -52.98429870605469
      ],
      "max": [
        44.51580047607422,
        21.609500885009766,
        52.98429870605469
      ],
      "type": "VEC3",
      "bufferView": 0,
      "byteOffset": 1752
    },
    {
      "name": "Box119_1_4_normals",
      "componentType": 5126,
      "count": 422,
      "min": [
        -1,
        0,
        -1
      ],
      "max": [
        1,
        0,
        1
      ],
      "type": "VEC3",
      "bufferView": 1,
      "byteOffset": 1752
    },
    {
      "name": "Box119_1_4_texcoords",
      "componentType": 5126,
      "count": 422,
      "min": [
        -2.998500108718872,
        -3
      ],
      "max": [
        18.100000381469727,
        1
      ],
      "type": "VEC2",
      "bufferView": 2,
      "byteOffset": 1168
    },
    {
      "name": "Box119_1_4_indices",
      "componentType": 5123,
      "count": 828,
      "min": [
        0
      ],
      "max": [
        421
      ],
      "type": "SCALAR",
      "bufferView": 3,
      "byteOffset": 488
    },
    {
      "name": "Box119_1_5_positions",
      "componentType": 5126,
      "count": 8,
      "min": [
        -15.853300094604492,
        0.63919997215271,
        -50.5614013671875
      ],
      "max": [
        15.808799743652344,
        5.639200210571289,
        -50.5614013671875
      ],
      "type": "VEC3",
      "bufferView": 0,
      "byteOffset": 6816
    },
    {
      "name": "Box119_1_5_normals",
      "componentType": 5126,
      "count": 8,
      "min": [
        0,
        0,
        -1
      ],
      "max": [
        0,
        0,
        -1
      ],
      "type": "VEC3",
      "bufferView": 1,
      "byteOffset": 6816
    },
    {
      "name": "Box119_1_5_texcoords",
      "componentType": 5126,
      "count": 8,
      "min": [
        0.0005000000237487257,
        0.0005000000237487257
      ],
      "max": [
        0.9994999766349792,
        0.9994999766349792
      ],
      "type": "VEC2",
      "bufferView": 2,
      "byteOffset": 4544
    },
    {
      "name": "Box119_1_5_indices",
      "componentType": 5123,
      "count": 12,
      "min": [
        0
      ],
      "max": [
        7
      ],
      "type": "SCALAR",
      "bufferView": 3,
      "byteOffset": 2144
    },
    {
      "name": "Box119_1_6_positions",
      "componentType": 5126,
      "count": 306,
      "min": [
        -44.51580047607422,
        20.13920021057129,
        -52.98429870605469
      ],
      "max": [
        44.51580047607422,
        21.609500885009766,
        52.98429870605469
      ],
      "type": "VEC3",
      "bufferView": 0,
      "byteOffset": 6912
    },
    {
      "name": "Box119_1_6_normals",
      "componentType": 5126,
      "count": 306,
      "min": [
        -1,
        0,
        -1
      ],
      "max": [
        1,
        1,
        1
      ],
      "type": "VEC3",
      "bufferView": 1,
      "byteOffset": 6912
    },
    {
      "name": "Box119_1_6_texcoords",
      "componentType": 5126,
      "count": 306,
      "min": [
        -8.403200149536133,
        -10.09689998626709
      ],
      "max": [
        9.403200149536133,
        11.09689998626709
      ],
      "type": "VEC2",
      "bufferView": 2,
      "byteOffset": 4608
    },
    {
      "name": "Box119_1_6_indices",
      "componentType": 5123,
      "count": 585,
      "min": [
        0
      ],
      "max": [
        305
      ],
      "type": "SCALAR",
      "bufferView": 3,
      "byteOffset": 2168
    },
    {
      "name": "Box119_1_7_positions",
      "componentType": 5126,
      "count": 96,
      "min": [
        -44.51580047607422,
        1,
        -52.98429870605469
      ],
      "max": [
        44.51580047607422,
        20.609500885009766,
        52.98429870605469
      ],
      "type": "VEC3",
      "bufferView": 0,
      "byteOffset": 10584
    },
    {
      "name": "Box119_1_7_normals",
      "componentType": 5126,
      "count": 96,
      "min": [
        -1,
        0,
        -1
      ],
      "max": [
        1,
        0,
        1
      ],
      "type": "VEC3",
      "bufferView": 1,
      "byteOffset": 10584
    },
    {
      "name": "Box119_1_7_texcoords",
      "componentType": 5126,
      "count": 96,
      "min": [
        -0.4997999966144562,
        -3.997499942779541
      ],
      "max": [
        0.4997999966144562,
        0.9975000023841858
      ],
      "type": "VEC2",
      "bufferView": 2,
      "byteOffset": 7056
    },
    {
      "name": "Box119_1_7_indices",
      "componentType": 5123,
      "count": 144,
      "min": [
        0
      ],
      "max": [
        95
      ],
      "type": "SCALAR",
      "bufferView": 3,
      "byteOffset": 3340
    }
  ],
  "asset": {
    "generator": "obj2gltf",
    "version": "2.0"
  },
  "buffers": [
    {
      "name": "ioc-",
      "byteLength": 573792,
      "uri": "data:application/octet-stream;base64,"
    }
  ],
  "bufferViews": [
    {
      "name": "bufferView_0",
      "buffer": 0,
      "byteLength": 11736,
      "byteOffset": 0,
      "byteStride": 12,
      "target": 34962
    },
    {
      "name": "bufferView_1",
      "buffer": 0,
      "byteLength": 11736,
      "byteOffset": 11736,
      "byteStride": 12,
      "target": 34962
    },
    {
      "name": "bufferView_2",
      "buffer": 0,
      "byteLength": 7824,
      "byteOffset": 23472,
      "byteStride": 8,
      "target": 34962
    },
    {
      "name": "bufferView_3",
      "buffer": 0,
      "byteLength": 3628,
      "byteOffset": 31296,
      "target": 34963
    },
    {
      "buffer": 0,
      "byteOffset": 34924,
      "byteLength": 11002
    },
    {
      "buffer": 0,
      "byteOffset": 45926,
      "byteLength": 77011
    },
    {
      "buffer": 0,
      "byteOffset": 122937,
      "byteLength": 95771
    },
    {
      "buffer": 0,
      "byteOffset": 218708,
      "byteLength": 98317
    },
    {
      "buffer": 0,
      "byteOffset": 317025,
      "byteLength": 91059
    },
    {
      "buffer": 0,
      "byteOffset": 408084,
      "byteLength": 89841
    },
    {
      "buffer": 0,
      "byteOffset": 497925,
      "byteLength": 13322
    },
    {
      "buffer": 0,
      "byteOffset": 511247,
      "byteLength": 62543
    }
  ],
  "images": [
    {
      "name": "LQ_SYM_00100004",
      "mimeType": "image/jpeg",
      "bufferView": 4
    },
    {
      "name": "lqcs010",
      "mimeType": "image/jpeg",
      "bufferView": 5
    },
    {
      "name": "cq002",
      "mimeType": "image/jpeg",
      "bufferView": 6
    },
    {
      "name": "cq002_1",
      "mimeType": "image/jpeg",
      "bufferView": 7
    },
    {
      "name": "lqcs012",
      "mimeType": "image/jpeg",
      "bufferView": 8
    },
    {
      "name": "cq0024",
      "mimeType": "image/jpeg",
      "bufferView": 9
    },
    {
      "name": "lll",
      "mimeType": "image/jpeg",
      "bufferView": 10
    },
    {
      "name": "c4",
      "mimeType": "image/jpeg",
      "bufferView": 11
    }
  ],
  "materials": [
    {
      "name": "Material__2146391490",
      "pbrMetallicRoughness": {
        "baseColorTexture": {
          "index": 0
        },
        "baseColorFactor": [
          1,
          1,
          1,
          1
        ],
        "metallicFactor": 0,
        "roughnessFactor": 0.99
      },
      "emissiveFactor": [
        0,
        0,
        0
      ],
      "alphaMode": "OPAQUE",
      "doubleSided": false
    },
    {
      "name": "Material__2146397379",
      "pbrMetallicRoughness": {
        "baseColorTexture": {
          "index": 1
        },
        "baseColorFactor": [
          1,
          1,
          1,
          1
        ],
        "metallicFactor": 0,
        "roughnessFactor": 0.99
      },
      "emissiveFactor": [
        0,
        0,
        0
      ],
      "alphaMode": "OPAQUE",
      "doubleSided": false
    },
    {
      "name": "Material__2146397453",
      "pbrMetallicRoughness": {
        "baseColorTexture": {
          "index": 2
        },
        "baseColorFactor": [
          1,
          1,
          1,
          1
        ],
        "metallicFactor": 0,
        "roughnessFactor": 0.99
      },
      "emissiveFactor": [
        0,
        0,
        0
      ],
      "alphaMode": "OPAQUE",
      "doubleSided": false
    },
    {
      "name": "Material__2146397466",
      "pbrMetallicRoughness": {
        "baseColorTexture": {
          "index": 3
        },
        "baseColorFactor": [
          1,
          1,
          1,
          1
        ],
        "metallicFactor": 0,
        "roughnessFactor": 0.99
      },
      "emissiveFactor": [
        0,
        0,
        0
      ],
      "alphaMode": "OPAQUE",
      "doubleSided": false
    },
    {
      "name": "Material__2146397403",
      "pbrMetallicRoughness": {
        "baseColorTexture": {
          "index": 4
        },
        "baseColorFactor": [
          1,
          1,
          1,
          1
        ],
        "metallicFactor": 0,
        "roughnessFactor": 0.99
      },
      "emissiveFactor": [
        0,
        0,
        0
      ],
      "alphaMode": "OPAQUE",
      "doubleSided": false
    },
    {
      "name": "Material__2146397567",
      "pbrMetallicRoughness": {
        "baseColorTexture": {
          "index": 5
        },
        "baseColorFactor": [
          1,
          1,
          1,
          1
        ],
        "metallicFactor": 0,
        "roughnessFactor": 0.99
      },
      "emissiveFactor": [
        0,
        0,
        0
      ],
      "alphaMode": "OPAQUE",
      "doubleSided": false
    },
    {
      "name": "Material__2146397417",
      "pbrMetallicRoughness": {
        "baseColorTexture": {
          "index": 6
        },
        "baseColorFactor": [
          1,
          1,
          1,
          1
        ],
        "metallicFactor": 0,
        "roughnessFactor": 0.99
      },
      "emissiveFactor": [
        0,
        0,
        0
      ],
      "alphaMode": "OPAQUE",
      "doubleSided": false
    },
    {
      "name": "Material__2146397441",
      "pbrMetallicRoughness": {
        "baseColorTexture": {
          "index": 7
        },
        "baseColorFactor": [
          1,
          1,
          1,
          1
        ],
        "metallicFactor": 0,
        "roughnessFactor": 0.99
      },
      "emissiveFactor": [
        0,
        0,
        0
      ],
      "alphaMode": "OPAQUE",
      "doubleSided": false
    }
  ],
  "meshes": [
    {
      "name": "Box119_1",
      "primitives": [
        {
          "attributes": {
            "POSITION": 0,
            "NORMAL": 1,
            "TEXCOORD_0": 2
          },
          "indices": 3,
          "material": 0,
          "mode": 4
        },
        {
          "attributes": {
            "POSITION": 4,
            "NORMAL": 5,
            "TEXCOORD_0": 6
          },
          "indices": 7,
          "material": 1,
          "mode": 4
        },
        {
          "attributes": {
            "POSITION": 8,
            "NORMAL": 9,
            "TEXCOORD_0": 10
          },
          "indices": 11,
          "material": 2,
          "mode": 4
        },
        {
          "attributes": {
            "POSITION": 12,
            "NORMAL": 13,
            "TEXCOORD_0": 14
          },
          "indices": 15,
          "material": 3,
          "mode": 4
        },
        {
          "attributes": {
            "POSITION": 16,
            "NORMAL": 17,
            "TEXCOORD_0": 18
          },
          "indices": 19,
          "material": 4,
          "mode": 4
        },
        {
          "attributes": {
            "POSITION": 20,
            "NORMAL": 21,
            "TEXCOORD_0": 22
          },
          "indices": 23,
          "material": 5,
          "mode": 4
        },
        {
          "attributes": {
            "POSITION": 24,
            "NORMAL": 25,
            "TEXCOORD_0": 26
          },
          "indices": 27,
          "material": 6,
          "mode": 4
        },
        {
          "attributes": {
            "POSITION": 28,
            "NORMAL": 29,
            "TEXCOORD_0": 30
          },
          "indices": 31,
          "material": 7,
          "mode": 4
        }
      ]
    }
  ],
  "nodes": [
    {
      "name": "Box119",
      "mesh": 0
    }
  ],
  "samplers": [
    {
      "wrapS": 10497,
      "wrapT": 10497
    }
  ],
  "scene": 0,
  "scenes": [
    {
      "nodes": [
        0
      ]
    }
  ],
  "textures": [
    {
      "name": "LQ_SYM_00100004",
      "sampler": 0,
      "source": 0
    },
    {
      "name": "lqcs010",
      "sampler": 0,
      "source": 1
    },
    {
      "name": "cq002",
      "sampler": 0,
      "source": 2
    },
    {
      "name": "cq002_1",
      "sampler": 0,
      "source": 3
    },
    {
      "name": "lqcs012",
      "sampler": 0,
      "source": 4
    },
    {
      "name": "cq0024",
      "sampler": 0,
      "source": 5
    },
    {
      "name": "lll",
      "sampler": 0,
      "source": 6
    },
    {
      "name": "c4",
      "sampler": 0,
      "source": 7
    }
  ]
}
